<svg id="map-shape" xmlns="http://www.w3.org/2000/svg" width="650" height="705" viewBox="0 0 650 705">
  <path id="path-fill" d="M655.255,51.46305a146.64783,146.64783,0,0,0-243.52691,110.089l-.483,36.59674a88.5,88.5,0,0,1-88.5,88.5h-79a88.5,88.5,0,0,0-88.5,88.5c0,19.56328,7.66667,32,16.375,52.3125l2.12827,4.4403a192.72059,192.72059,0,0,1,19.49673,84.7472c0,106.8671-86.6329,193.5-193.5,193.5V-.93848H652.25048V48.89573Z" fill="#1e5aae"/>
  <path id="path-stroke" d="M652.25048,48.89573l3.00448,2.56732a146.64783,146.64783,0,0,0-243.52691,110.089l-.483,36.59674a88.5,88.5,0,0,1-88.5,88.5h-79a88.5,88.5,0,0,0-88.5,88.5c0,19.56328,7.66667,32,16.375,52.3125l2.12827,4.4403a192.72059,192.72059,0,0,1,19.49673,84.7472c0,106.8671-86.6329,193.5-193.5,193.5" fill="none" stroke="#fff" stroke-miterlimit="10" stroke-width="10"/>
</svg>
