<svg xmlns="http://www.w3.org/2000/svg" width="56" height="75" viewBox="0 0 78.27081 105.5444">
  <g id="Layer_2" data-name="Layer 2">
    <g id="Layer_1-2" data-name="Layer 1">
      <path d="M39.13544.25A38.88543,38.88543,0,0,0,.25,39.13538c0,9.81823,12.00305,28.33252,20.8266,41.33191,10.47656,15.43469,18.05884,24.6828,18.05884,24.6828s7.58221-9.24811,18.05877-24.6828c8.82355-12.99939,20.8266-31.51368,20.8266-41.33191A38.88541,38.88541,0,0,0,39.13544.25Zm-.00037,57.42535c-8.86163,0-16.04523-2.39428-16.04523-5.34845l1.185-9.48175,12.1192,3.723a9.35532,9.35532,0,0,0,5.48127,0l12.12-3.72388,1.185,9.4826C55.18036,55.28107,47.99677,57.67535,39.13507,57.67535Zm25.2663-20.82544L41.08978,44.01178a6.68335,6.68335,0,0,1-3.91021,0L20.836,38.99011a3.94225,3.94225,0,0,0-1.72907,3.06867,2.57205,2.57205,0,0,1,.15039,4.389l2.13355,9.60041a1.337,1.337,0,0,1-1.30536,1.62713h-4.689a1.337,1.337,0,0,1-1.30456-1.62713l2.13354-9.60041a2.57871,2.57871,0,0,1,.21308-4.43084A6.58521,6.58521,0,0,1,17.9328,38.0976l-4.064-1.24854a1.96746,1.96746,0,0,1,0-3.80988l23.31158-7.16186a6.67591,6.67591,0,0,1,3.91016,0l23.31079,7.16186A1.9678,1.9678,0,0,1,64.40137,36.84991Z" fill="#900" stroke="#fff" stroke-width="0.5" opacity="1"/>
    </g>
  </g>
</svg>
