<svg xmlns="http://www.w3.org/2000/svg" width="56" height="75" viewBox="0 0 78.27081 105.5444">
  <g id="Layer_2" data-name="Layer 2">
    <g id="Layer_1-2" data-name="Layer 1">
      <path d="M39.13544.25A38.88543,38.88543,0,0,0,.25,39.13538c0,9.81823,12.00305,28.33252,20.8266,41.33191,10.47656,15.43469,18.05884,24.6828,18.05884,24.6828s7.58221-9.24811,18.05877-24.6828c8.82355-12.99939,20.8266-31.51368,20.8266-41.33191A38.88541,38.88541,0,0,0,39.13544.25ZM58.96869,54.587a2.42256,2.42256,0,0,1-2.19464,1.38409H42.478v2.554l3.164,5.05573A1.67172,1.67172,0,0,1,44.14728,66H34.12354a1.67172,1.67172,0,0,1-1.49476-2.41925l3.164-5.05573v-2.554h-14.296A2.42264,2.42264,0,0,1,19.30212,54.587a2.30909,2.30909,0,0,1,.37183-2.53412L28.019,42.60052H24.81952a2.37315,2.37315,0,0,1-2.17059-1.36315,2.30623,2.30623,0,0,1,.34155-2.51117L31.15277,29.23H28.135a2.36816,2.36816,0,0,1-2.18-1.42163,2.32608,2.32608,0,0,1,.44287-2.51538L37.91742,13.02136a1.72053,1.72053,0,0,1,2.436,0L51.87189,25.293a2.32415,2.32415,0,0,1,.44287,2.51538A2.36672,2.36672,0,0,1,50.1358,29.23H47.118l8.16126,9.49414a2.30275,2.30275,0,0,1,.34259,2.51221,2.37344,2.37344,0,0,1-2.1706,1.36419H50.25177l8.34509,9.45234A2.30909,2.30909,0,0,1,58.96869,54.587Z" fill="#337536" stroke="#fff" stroke-width="0.5" opacity="1"/>
    </g>
  </g>
</svg>
