<svg xmlns="http://www.w3.org/2000/svg" width="56" height="75" viewBox="0 0 78.27081 105.5444">
  <title>Asset 5</title>
  <g id="Layer_2" data-name="Layer 2">
    <g id="Layer_1-2" data-name="Layer 1">
      <path d="M39.13544.25A38.88543,38.88543,0,0,0,.25,39.13538c0,9.81823,12.00305,28.33252,20.8266,41.33191,10.47656,15.43469,18.05884,24.6828,18.05884,24.6828s7.58221-9.24811,18.05877-24.6828c8.82355-12.99939,20.8266-31.51368,20.8266-41.33191A38.88541,38.88541,0,0,0,39.13544.25ZM64.43115,42.36322,42.62775,64.166a4.93924,4.93924,0,0,1-6.98413,0l-21.8039-21.8028a4.94085,4.94085,0,0,1,0-6.98584l21.8039-21.80389a4.939,4.939,0,0,1,6.98413,0L64.43,35.37738A4.93975,4.93975,0,0,1,64.43115,42.36322Z" fill="#212121" stroke="#fff" stroke-width="0.5" opacity="1"/>
      <g opacity="1">
        <path d="M24.84919,38.56754H23.70332v2.38312h1.14587a1.192,1.192,0,0,0,0-2.38312Z" fill="#212121" stroke="#fff" stroke-width="0.25"/>
        <polygon points="36.413 29.135 36.391 29.135 35.323 32.394 37.459 32.394 36.413 29.135" fill="#212121" stroke="#fff" stroke-width="0.25"/>
        <path d="M56.9004,45.05607a.31327.31327,0,0,0,.30639-.31336.30668.30668,0,1,0-.30639.31336Zm-.16223-.11951v-.39124c0-.01556.007-.02337.02533-.02337h.14367c.109,0,.16443.033.16443.13134a.11347.11347,0,0,1-.10144.12439l-.0097.00061.09643.14875a.06121.06121,0,0,1,.01129.02649c0,.0119-.02288.02063-.04071.02063a.04431.04431,0,0,1-.04266-.02436l-.10461-.16913h-.07087v.15589c0,.02411-.01184.0376-.03546.0376a.03285.03285,0,0,1-.03589-.02936Z" fill="#212121" stroke="#fff" stroke-width="0.25"/>
        <path d="M56.99976,44.64658c0-.05353-.053-.05957-.1-.05957h-.0904v.12921h.08289C56.94868,44.71622,56.99976,44.71335,56.99976,44.64658Z" fill="#212121" stroke="#fff" stroke-width="0.25"/>
        <path d="M62.54212,40.61643l.001-.001a2.4698,2.4698,0,0,0-.001-3.49286L40.88166,15.46109a2.47229,2.47229,0,0,0-3.4928.00049L15.728,37.12253a2.4714,2.4714,0,0,0,0,3.4939L37.38886,62.277l.00006.00006a2.46971,2.46971,0,0,0,3.49274-.00006Zm-6.038,4.12628a.3966.3966,0,1,1,0,.00086Zm-4.92389-6.68127c0-.56226.28082-.978.87652-.978h2.78858a.76966.76966,0,0,1,.0788-.0011.74884.74884,0,0,1,.71929.77728q.00055.02665-.00079.05317a.76047.76047,0,0,1-.7973.72174H53.26575v1.64123h1.84461a.76221.76221,0,0,1,.821.77588q.00011.02527-.00146.05054a.77354.77354,0,0,1-.81958.72455H53.26575v1.71032h2.08033a.74856.74856,0,0,1,.79889.77576c.0003.01782.00006.03571-.00086.05353a.76.76,0,0,1-.798.72009H52.44642a.81863.81863,0,0,1-.86615-.84Zm-5.9129-9.56855c0-.56347.28112-.97985.87677-.97985h2.78833a.72446.72446,0,0,1,.07812-.0011.75.75,0,0,1,.721.778c.00036.01831.00012.03662-.00086.05493a.75993.75993,0,0,1-.79821.71961H47.35358v1.64258h1.8443a.76177.76177,0,0,1,.82111.775q.00009.02545-.00147.0509a.77418.77418,0,0,1-.81964.726h-1.8443v1.70813h2.08081a.74846.74846,0,0,1,.79792.777q.00054.0261-.00074.05219a.76116.76116,0,0,1-.79718.72327H46.53327q-.03424.00183-.06848.00085a.82156.82156,0,0,1-.79742-.845Zm2.42242,8.45679c.82056,0,2.4173.2688,2.4173,1.25824a.71244.71244,0,0,1-.69666.75305c-.46039,0-.77521-.39343-1.72064-.39343-1.39282,0-2.11359,1.18011-2.11359,2.55292a2.20581,2.20581,0,0,0,2.11359,2.48315c.94543,0,1.32721-.47235,1.78888-.47235a.79165.79165,0,0,1,.7417.76556c0,1.07868-1.69751,1.32636-2.53058,1.32636a3.89291,3.89291,0,0,1-3.86658-4.13763A3.87844,3.87844,0,0,1,48.08979,36.94968ZM41.26929,27.513H44.1468a.776.776,0,0,1,0,1.55145h-2.069v1.64258h1.74328a.755.755,0,0,1,.80878.764q.001.03342-.00092.06678a.76566.76566,0,0,1-.80786.72113H42.07777v2.45153a.84358.84358,0,1,1-1.68592,0V28.39237c-.001-.02313-.001-.04633-.00006-.06946A.84431.84431,0,0,1,41.26929,27.513Zm-8.32995,6.91528,2.25952-6.1156a1.32345,1.32345,0,0,1,1.20313-.93335,1.27059,1.27059,0,0,1,1.20324.93335l2.20325,6.1156a1.31246,1.31246,0,0,1,.09064.416.75067.75067,0,0,1-.75714.744l-.01954-.00043a.78766.78766,0,0,1-.81994-.5852l-.33679-1.0575H34.83955l-.33783,1.046a.78115.78115,0,0,1-.8097.59674.80884.80884,0,0,1-.83215-.78472l-.00012-.00391A.94454.94454,0,0,1,32.93934,34.42832Zm-5.82276-4.498a2.6007,2.6007,0,0,1,2.78815-2.55145c.62988,0,2.2038.23633,2.2038,1.12488a.77913.77913,0,0,1-.75311.8313c-.46125,0-.82081-.33649-1.49573-.33649-.48285,0-.92133.26019-.92133.73047,0,1.1571,3.75482.41485,3.75482,3.31671a2.67059,2.67059,0,0,1-2.8786,2.60815c-.86535,0-2.73114-.20227-2.73114-1.25952a.75.75,0,0,1,.752-.79815c.529,0,1.15887.43994,1.88916.43994.742,0,1.14636-.41791,1.14636-.96741C30.87092,31.7407,27.11658,32.53916,27.11658,29.93033ZM24.9502,42.43558H23.70332v1.84216a.84426.84426,0,1,1-1.68714,0V37.96122a.80861.80861,0,0,1,.87683-.87775h1.98993a2.67422,2.67422,0,0,1,2.87769,2.68622A2.644,2.644,0,0,1,24.9502,42.43558ZM32.309,45.08646H29.49769a.831.831,0,0,1-.87561-.919V37.89261a.84375.84375,0,1,1,1.68622,0v5.64447H32.309a.76157.76157,0,0,1,.80908.8097A.78532.78532,0,0,1,32.309,45.08646Zm6.73126.10523V41.08048H36.43262v4.11121h-1.7611a.708.708,0,0,1-.707-.70868V42.0496h-.153a.67578.67578,0,0,1-.56189-.30249l-.00921-.01807a.51291.51291,0,0,1-.0517-.09863.32225.32225,0,0,1-.01251-.03888.5398.5398,0,0,1-.02472-.08631.45938.45938,0,0,1-.00989-.09c-.00049-.01325-.0036-.02564-.0036-.03949v-.00208a.65838.65838,0,0,1,.01349-.13171.27474.27474,0,0,1,.01074-.03534.52068.52068,0,0,1,.02734-.09064c.00434-.00964.00928-.0166.01459-.02612a.68247.68247,0,0,1,.1311-.19251L37.94392,36.29l.00128-.00128a.67236.67236,0,0,1,.95086.00128l4.60834,4.60736a.70968.70968,0,0,1,.13135.19251c.00482.00952.00989.01648.01373.02612a.69125.69125,0,0,1,.02942.09534c.0022.0116.00745.01941.00989.03064a.75659.75659,0,0,1,.01324.13379l-.00213.02264a.68271.68271,0,0,1-.01062.10919c-.00678.02533-.015.05207-.02387.078a.41931.41931,0,0,1-.01495.04589.65606.65606,0,0,1-.0492.09382c-.00408.00634-.00646.01513-.01153.02179a.675.675,0,0,1-.562.30249H42.8755V44.483a.70858.70858,0,0,1-.70777.70868Z" fill="#212121" stroke="#fff" stroke-width="0.25"/>
      </g>
    </g>
  </g>
</svg>
