<svg id="safe-place-logo" xmlns="http://www.w3.org/2000/svg" width="429.43395" height="429.44174" viewBox="0 0 429.43395 429.44174">
  <path id="background" d="M417.81241,186.68018a39.66256,39.66256,0,0,1,.00971,56.09082L242.7581,417.83008a39.65809,39.65809,0,0,1-56.07715,0L11.613,242.771a39.67135,39.67135,0,0,1,0-56.09082l175.068-175.068a39.65683,39.65683,0,0,1,56.07715,0Z" transform="translate(0.00004)" fill="#ffcd00"/>
  <path id="outline" d="M214.71843,20.97334a19.82437,19.82437,0,0,1,14.017,5.7978l173.91628,173.924a19.83082,19.83082,0,0,1,0,28.05315L228.73539,402.66557a19.83011,19.83011,0,0,1-28.04442,0L26.77172,228.7483a19.84341,19.84341,0,0,1,0-28.05315L200.691,26.77491a19.81036,19.81036,0,0,1,14.02746-5.80157m0-7.49713h0a27.15274,27.15274,0,0,0-19.32581,8.0051L21.47535,195.40731a27.35112,27.35112,0,0,0,0,38.63934l173.91727,173.923a27.34451,27.34451,0,0,0,38.64806,0L407.955,234.04665a27.35633,27.35633,0,0,0,0-38.63934L234.04068,21.48131a27.17111,27.17111,0,0,0-19.32225-8.0051" transform="translate(0.00004)" fill="#231f20"/>
  <path id="text" d="M354.17134,261.8792a3.18292,3.18292,0,1,1,3.18183,3.18777,3.18147,3.18147,0,0,1-3.18183-3.18777m5.642,0a2.46256,2.46256,0,1,0-2.46019,2.51609,2.51582,2.51582,0,0,0,2.46019-2.51609m-3.19173.30482v1.25141c0,.19344-.09474.30185-.28461.30185a.26313.26313,0,0,1-.28639-.30185V260.294c0-.12486.05609-.18769.20335-.18769h1.15349c.87484,0,1.32.26519,1.32,1.0548a.91123.91123,0,0,1-.89227,1.00346l.77415,1.19433a.49526.49526,0,0,1,.091.21286c0,.09573-.18374.16549-.327.16549a.35537.35537,0,0,1-.34269-.19542l-.83995-1.35784Zm.66574-.51768c.45307,0,.86333-.02319.86333-.55931,0-.42969-.42592-.47824-.80328-.47824h-.72579v1.03755Zm-198.99352-130.173c0-7.13423-12.63693-9.03215-17.69428-9.03215-12.00586,0-22.38693,7.85249-22.38693,20.48645,0,20.94685,30.14429,14.53563,30.14429,25.19913,0,4.412-3.24663,7.76727-9.20418,7.76727-5.8636,0-10.92115-3.53244-15.16847-3.53244-3.69595,0-6.03782,2.89266-6.03782,6.40845,0,8.48929,14.98078,10.11311,21.92911,10.11311,12.45894,0,23.11293-8.03325,23.11293-20.94111,0-23.29963-30.14847-17.3403-30.14847-26.6307,0-3.776,3.52074-5.86538,7.39765-5.86538,5.41924,0,8.30615,2.702,12.00963,2.702,3.694,0,6.04654-3.15309,6.04654-6.67462m24.813-1.53383c1.5378-4.1508,5.05755-7.49436,9.66023-7.49436,4.78642,0,8.127,3.15091,9.661,7.49436l17.69051,49.10345a10.533,10.533,0,0,1,.72757,3.33979,6.02657,6.02657,0,0,1-6.236,5.97,6.32463,6.32463,0,0,1-6.58365-4.69841l-2.704-8.49108H180.22216l-2.7127,8.39813a6.27213,6.27213,0,0,1-6.50139,4.79136,6.49376,6.49376,0,0,1-6.68215-6.33194,7.58489,7.58489,0,0,1,.63859-2.97788Zm.99494,32.766h17.14944L192.8581,136.5584h-.18016Zm40.70057,18.603c0,4.5,2.89167,7.03256,6.77055,7.03256,3.8767,0,6.76638-2.53254,6.76638-7.03256V161.64456h13.99755a6.14837,6.14837,0,0,0,6.49366-6.32619c0-3.06192-2.16013-6.13454-6.49366-6.13454H238.33933V135.99532h16.61253a6.23093,6.23093,0,0,0,0-12.457H231.84765a6.77987,6.77987,0,0,0-7.04525,7.0607Zm42.35848-.28263a6.59668,6.59668,0,0,0,6.95229,6.77828h23.29388a6.11105,6.11105,0,0,0,6.40646-6.2265,6.00681,6.00681,0,0,0-6.40646-6.23819H280.69979V161.64456h14.80835a6.21661,6.21661,0,0,0,6.59237-6.2382c0-3.14991-2.17163-6.22253-6.59237-6.22253H280.69979V135.99532h15.88852a6.10161,6.10161,0,0,0,6.41617-6.21877,6.02211,6.02211,0,0,0-6.41617-6.23819H274.20037c-4.78264,0-7.03949,3.34355-7.03949,7.86775Zm-189.90052,26.383c0-4.25922,2.52283-7.04723,7.04029-7.04723h15.97751c13.27074,0,23.106,8.66133,23.106,21.5682,0,13.18176-10.19813,21.40468-22.5659,21.40468H90.8068V258.1456c0,4.52618-2.89444,7.053-6.77708,7.053-3.87868,0-6.76936-2.52679-6.76936-7.053Zm13.54644,24.003h9.20042c5.68563,0,9.29912-4.15457,9.29912-9.56807,0-5.41945-3.61349-9.56629-9.29912-9.56629H90.8068Zm39.494,25.8282c0,4.505,2.612,7.37921,7.03058,7.37921h22.57185a6.30621,6.30621,0,0,0,6.49664-5.93912,6.11726,6.11726,0,0,0-6.49664-6.5014H143.83947v-45.3207c0-4.51449-2.89345-7.03831-6.77411-7.03831-3.87293,0-6.7646,2.52382-6.7646,7.03831Zm156.31-57.95267c-18.41056,0-31.0455,14.432-31.0455,33.20741,0,18.68822,12.7279,33.22187,31.0455,33.22187,6.68909,0,20.31877-1.98869,20.31877-10.64922,0-2.08343-1.89673-6.147-5.95537-6.147-3.70665,0-6.77233,3.79267-14.3634,3.79267-11.10211,0-16.97047-9.20914-16.97047-19.93765,0-11.02262,5.7871-20.49794,16.97047-20.49794,7.59107,0,10.11885,3.15864,13.81558,3.15864,3.34455,0,5.59368-2.789,5.59368-6.04634,0-7.94426-12.82086-10.10241-19.40926-10.10241m28.026,58.5867c0,4.05567,2.97689,6.74518,6.95427,6.74518h23.28219a6.10255,6.10255,0,0,0,6.41419-6.212,6.00885,6.00885,0,0,0-6.41419-6.22848H328.16972V238.4664h14.81053a6.211,6.211,0,0,0,6.59237-6.22353c0-3.14912-2.16786-6.22947-6.59237-6.22947H328.16972V212.8356h15.89446a6.10613,6.10613,0,0,0,6.40844-6.22174,6.01283,6.01283,0,0,0-6.40844-6.23225H321.67427c-4.78265,0-7.03752,3.33781-7.03752,7.8523ZM251.27434,233.771c-.01942-.09-.062-.153-.07947-.246a5.55941,5.55941,0,0,0-.23605-.76543c-.03092-.0773-.07155-.13358-.11039-.20989a5.69233,5.69233,0,0,0-1.0548-1.54553l-37.00086-36.99333a5.39866,5.39866,0,0,0-7.64538,0l-37.00285,36.99333a5.47824,5.47824,0,0,0-1.05281,1.54553c-.04261.07631-.08225.13259-.11713.20989a4.14689,4.14689,0,0,0-.2196.72777,2.19214,2.19214,0,0,0-.08622.28362,5.27639,5.27639,0,0,0-.10841,1.05777v.01645c0,.11118.02517.21088.02913.31731a3.67629,3.67629,0,0,0,.07928.722,4.32814,4.32814,0,0,0,.1984.69289,2.537,2.537,0,0,0,.10068.31256,4.09928,4.09928,0,0,0,.415.79159,1.13082,1.13082,0,0,0,.07373.14528,5.428,5.428,0,0,0,4.51152,2.42888h1.22821v19.53808a5.68468,5.68468,0,0,0,5.67671,5.69018h14.13984v-33.0098h20.93734V265.484h25.11113a5.68925,5.68925,0,0,0,5.68266-5.69018V240.25571h1.22305a5.419,5.419,0,0,0,4.51172-2.42888c.04064-.05332.06-.12388.093-.17521a5.31232,5.31232,0,0,0,.39481-.75294,3.45635,3.45635,0,0,0,.1201-.36865c.07155-.2081.13735-.42294.19146-.62629a5.49807,5.49807,0,0,0,.08522-.87662c0-.07076.01745-.11337.01745-.18194h0a6.11665,6.11665,0,0,0-.10644-1.07422" transform="translate(0.00004)" fill="#231f20"/>
</svg>
